<svg width="28" height="28" viewBox="0 0 28 28" fill="none" xmlns="http://www.w3.org/2000/svg">
<path d="M26 14V4C26 3.46957 25.7893 2.96086 25.4142 2.58579C25.0391 2.21071 24.5304 2 24 2H4C3.46957 2 2.96086 2.21071 2.58579 2.58579C2.21071 2.96086 2 3.46957 2 4V24C2 24.5304 2.21071 25.0391 2.58579 25.4142C2.96086 25.7893 3.46957 26 4 26H14" stroke="#5D5D5D" stroke-width="2.5" stroke-linecap="round" stroke-linejoin="round"/>
<path d="M19.3333 23.3333C21.5425 23.3333 23.3333 21.5424 23.3333 19.3333C23.3333 17.1241 21.5425 15.3333 19.3333 15.3333C17.1242 15.3333 15.3333 17.1241 15.3333 19.3333C15.3333 21.5424 17.1242 23.3333 19.3333 23.3333Z" stroke="#5D5D5D" stroke-width="2.5"/>
<path d="M22.6667 22L26 24.6667" stroke="#5D5D5D" stroke-width="2.5" stroke-linecap="round" stroke-linejoin="round"/>
<path d="M7.33331 8.66675H20.6666" stroke="#5D5D5D" stroke-width="2.5" stroke-linecap="round" stroke-linejoin="round"/>
<path d="M7.33331 14H12.6666" stroke="#5D5D5D" stroke-width="2.5" stroke-linecap="round" stroke-linejoin="round"/>
</svg>
